<svg id="fuel" xmlns="http://www.w3.org/2000/svg" width="16.777" height="16.728" viewBox="0 0 16.777 16.728">
  <path id="Path_3553" data-name="Path 3553" d="M7.6,1.694,3.122,3.012a1.052,1.052,0,0,0-.379.2L1.383,4.348.238,3.119l1.88-1.527a.459.459,0,0,1,.16-.084L7.12.082a.461.461,0,0,1,.572.312l.214.729a.461.461,0,0,1-.311.572Zm0,0" transform="translate(8.844 -0.063)" />
  <path id="Path_3554" data-name="Path 3554" d="M223.66,105.042a.3.3,0,0,0-.1.173l-2.081,10.818a1.22,1.22,0,0,1-1.691.886l-3.112-1.375a.3.3,0,0,0-.4.161.4.4,0,0,1-.521.219l-1.516-.622a.4.4,0,0,1-.218-.521l2.831-6.907a.3.3,0,0,0-.051-.31l-.325-.376a.461.461,0,0,1,.047-.649l3.159-2.737a.461.461,0,0,1,.65.048l.7.813a.3.3,0,0,0,.419.034l1.157-.964,1.147,1.23Zm-3.834,10.916a.68.68,0,0,0,.946-.52l.7-4.63a1.43,1.43,0,0,0-.221-1.006l-.781.617a1.962,1.962,0,0,0-.656.932l-1.348,4.007Zm.479-6.782-.449-.081a1.447,1.447,0,0,0-1.617.958l-1.438,4.271a.3.3,0,0,0,.163.37l.951.42,1.331-3.952a2.551,2.551,0,0,1,.855-1.214l.722-.572a1.447,1.447,0,0,0-.52-.2Zm1.633-2.1-.424,1.8a.3.3,0,0,0,.223.359.284.284,0,0,0,.069.008.3.3,0,0,0,.291-.231l.424-1.8a.3.3,0,0,0-.584-.138Zm.839-1.794a.3.3,0,0,0-.364.216l-.15.587a.3.3,0,0,0,.216.364.285.285,0,0,0,.074.009.3.3,0,0,0,.29-.225l.149-.586a.3.3,0,0,0-.216-.365Zm0,0" transform="translate(-213.989 -100.296)" />
  <path id="Path_3555" data-name="Path 3555" d="M1.5,149.492a1.448,1.448,0,0,1-1.5-1.5,6.894,6.894,0,0,1,1.5-2.845A6.893,6.893,0,0,1,3,147.994a1.448,1.448,0,0,1-1.5,1.5Zm0,0" transform="translate(13.779 -140.396)" />
</svg>
